<svg width="22" height="22" viewBox="0 0 22 22" fill="none" xmlns="http://www.w3.org/2000/svg">
<path d="M3.4375 5.5V16.5C3.4375 16.8647 3.58237 17.2144 3.84023 17.4723C4.09809 17.7302 4.44783 17.875 4.8125 17.875H18.5625C18.7448 17.875 18.9197 17.8026 19.0486 17.6736C19.1776 17.5447 19.25 17.3698 19.25 17.1875V7.5625C19.25 7.38017 19.1776 7.20529 19.0486 7.07636C18.9197 6.94743 18.7448 6.875 18.5625 6.875H4.8125C4.44783 6.875 4.09809 6.73013 3.84023 6.47227C3.58237 6.21441 3.4375 5.86467 3.4375 5.5ZM3.4375 5.5C3.4375 5.13533 3.58237 4.78559 3.84023 4.52773C4.09809 4.26987 4.44783 4.125 4.8125 4.125H16.5" stroke="white" stroke-width="1.375" stroke-linecap="round" stroke-linejoin="round"/>
<path d="M15.4688 13.4063C16.0383 13.4063 16.5 12.9445 16.5 12.375C16.5 11.8055 16.0383 11.3438 15.4688 11.3438C14.8992 11.3438 14.4375 11.8055 14.4375 12.375C14.4375 12.9445 14.8992 13.4063 15.4688 13.4063Z" fill="white"/>
<defs>
<linearGradient id="paint0_linear_145_28" x1="3.4375" y1="10.6727" x2="19.25" y2="10.6727" gradientUnits="userSpaceOnUse">
<stop/>
<stop offset="1"/>
</linearGradient>
<linearGradient id="paint1_linear_145_28" x1="14.4375" y1="12.3259" x2="16.5" y2="12.3259" gradientUnits="userSpaceOnUse">
<stop/>
<stop offset="1"/>
</linearGradient>
</defs>
</svg>
