<svg width="37" height="27" viewBox="0 0 37 27" fill="none" xmlns="http://www.w3.org/2000/svg">
<path d="M2.54309 7.988L0.431093 7.412L0.803093 6.02V2.36L0.191093 2.192L0.659093 0.439999L2.61509 0.98V0.991999V1.7L2.96309 0.439999L5.47109 1.124L5.66309 0.439999L8.41109 1.196L8.01509 2.636V6.128L8.41109 6.236L7.94309 7.988L6.05909 7.472L6.20309 6.956V2.468L5.42309 2.252L5.31509 2.636V6.128L5.71109 6.236L5.24309 7.988L3.35909 7.472L3.50309 6.956V2.468L2.61509 2.228V6.128L3.01109 6.236L2.54309 7.988ZM11.5292 8.048L8.88922 7.328L9.28522 5.78V3.86L8.88922 3.752L9.35722 2L11.4692 2.576L11.0972 3.968V6.056L11.8652 6.248V3.86L11.4692 3.752L11.9372 2L14.0492 2.576L13.6772 3.968V9.044L13.2212 10.82L9.47722 9.8L9.92122 8.06L11.8652 8.564V6.716L11.5292 8.048ZM18.8054 7.988L16.6934 7.412L17.0654 6.02V2.36L16.4534 2.192L16.9214 0.439999L18.8774 0.98V0.991999V1.7L19.2254 0.439999L21.7334 1.124L21.9254 0.439999L24.6734 1.196L24.2774 2.636V6.128L24.6734 6.236L24.2054 7.988L22.3214 7.472L22.4654 6.956V2.468L21.6854 2.252L21.5774 2.636V6.128L21.9734 6.236L21.5054 7.988L19.6214 7.472L19.7654 6.956V2.468L18.8774 2.228V6.128L19.2734 6.236L18.8054 7.988ZM27.2636 8L25.1516 7.424L25.5236 6.032V4.04L25.1516 3.944L25.6196 2.192L27.7316 2.768L27.3356 4.256V6.14L27.7316 6.248L27.2636 8ZM27.1436 1.976L25.3676 1.484L25.7156 0.236L27.4916 0.728L27.1436 1.976ZM30.325 8L28.213 7.424L28.585 6.032V4.04L28.213 3.944L28.681 2.192L30.553 2.708L30.745 2L33.373 2.72L32.977 4.208V6.14L33.373 6.248L32.905 8L30.793 7.424L31.165 6.032V3.992L30.517 3.812L30.397 4.256V6.14L30.793 6.248L30.325 8ZM36.1445 8L34.0325 7.424L34.4045 6.032V2.924L33.8525 2.876L34.0205 1.076L34.4045 1.112V0.392H36.2165V1.28L36.8045 1.34L36.6365 3.14L36.2165 3.104V5.912H35.3765L36.6125 6.248L36.1445 8ZM6.42416 26L2.20016 24.848L2.94416 22.064V14.672H5.51216L0.520156 14.192L0.856156 10.592L10.5282 11.504L10.1922 15.128L6.56816 14.768V21.824H4.88816L7.36016 22.496L6.42416 26ZM11.2305 24.824L11.4945 23.84V16.592H12.5985L13.4625 13.352L20.6865 15.344L20.1345 17.384V23.936H17.5665L16.9185 26.36L11.2305 24.824ZM15.1185 22.112L16.5105 22.496V17.96L15.1185 17.576V22.112ZM21.379 24.824L21.643 23.84V16.592H22.747L23.611 13.352L30.835 15.344L30.283 17.384V23.936H27.715L27.067 26.36L21.379 24.824ZM25.267 22.112L26.659 22.496V17.96L25.267 17.576V22.112ZM35.6554 26L31.4314 24.848L32.1754 22.064V11.072L35.7994 10.184V22.28L36.5914 22.496L35.6554 26Z" fill="#3E3D3D"/>
</svg>
